<svg xmlns="http://www.w3.org/2000/svg" width="1600" height="1000" viewBox="0 0 1600 1000">
  <defs>
    <radialGradient id="g" cx="30%" cy="35%" r="75%">
      <stop offset="0%" stop-color="#3a2a1c"/>
      <stop offset="55%" stop-color="#1c1917"/>
      <stop offset="100%" stop-color="#0c0a09"/>
    </radialGradient>
  </defs>
  <rect width="1600" height="1000" fill="url(#g)"/>
  <g fill="none" stroke="#faf9f6" stroke-opacity="0.35" stroke-width="6" stroke-linecap="round" stroke-linejoin="round" transform="translate(750,430)">
    <path d="M0 24 L48 24 L62 4 L136 4 L150 24 L198 24 A10 10 0 0 1 208 34 V132 A10 10 0 0 1 198 142 H0 A10 10 0 0 1 -10 132 V34 A10 10 0 0 1 0 24 Z" transform="translate(-99,-73)"/>
    <circle cx="0" cy="18" r="34"/>
  </g>
  <text x="800" y="560" font-family="Inter, Helvetica, Arial, sans-serif" font-size="20" letter-spacing="4" fill="#faf9f6" fill-opacity="0.45" text-anchor="middle">HERO PHOTOGRAPHY — PLACEHOLDER</text>
  <text x="800" y="592" font-family="Inter, Helvetica, Arial, sans-serif" font-size="15" letter-spacing="2" fill="#faf9f6" fill-opacity="0.3" text-anchor="middle">Replace images/hero-steak.jpg with the ribeye-on-the-grill photo</text>
</svg>
